<?xml version="1.0" encoding="iso-8859-1"?>
<!-- Generator: Adobe Illustrator 18.0.0, SVG Export Plug-In . SVG Version: 6.00 Build 0)  -->
<!DOCTYPE svg PUBLIC "-//W3C//DTD SVG 1.1//EN" "http://www.w3.org/Graphics/SVG/1.1/DTD/svg11.dtd">
<svg version="1.1" id="Capa_1" xmlns="http://www.w3.org/2000/svg" xmlns:xlink="http://www.w3.org/1999/xlink" x="0px" y="0px"
	 viewBox="0 0 487.67 487.67" style="enable-background:new 0 0 487.67 487.67;" xml:space="preserve">
<g>
	<path d="M485.6,463.384c0-13.417-10.871-24.288-24.279-24.288h-10.25V204.002h-0.008c-12.6,0-24.517-4.109-34.442-11.037
		c-6.673,4.704-14.353,8.18-22.867,9.87c-3.895,0.778-7.869,1.167-11.797,1.167c-2.619,0-5.133-0.35-7.681-0.683v46.367H261.104
		v-48.508c-5.507,1.649-11.235,2.816-17.281,2.816c-6.03,0-11.751-1.166-17.265-2.816v48.508H113.386V203.32
		c-2.538,0.333-5.07,0.683-7.687,0.683c-3.903,0-7.863-0.389-11.838-1.175c-8.49-1.69-16.155-5.158-22.835-9.862
		c-9.925,6.927-21.826,11.037-34.417,11.037h-0.008v235.094H26.35c-13.417,0-24.286,10.871-24.286,24.288
		c0,13.417,10.869,24.286,24.286,24.286H461.32C474.729,487.67,485.6,476.801,485.6,463.384z M374.276,284.224v55.071
		c0,10.718-8.68,19.398-19.406,19.398h-93.765v-74.47H374.276z M226.559,284.224v74.47h-93.766c-10.719,0-19.408-8.68-19.408-19.398
		v-55.071H226.559z"/>
	<path d="M26.723,176.645c3.292,0.983,6.617,1.451,9.893,1.451c14.869,0,28.603-9.679,33.078-24.666l1.816-6.07
		c1.23,11.021,7.673,20.732,17.312,26.167c3.11,1.729,6.426,3.157,10.108,3.887c2.277,0.462,4.546,0.682,6.776,0.682
		c16.145,0,30.578-11.369,33.839-27.809l0.842-4.212c0.864,11.718,7.577,22.041,17.557,27.618c4.007,2.246,8.515,3.729,13.386,4.222
		c1.165,0.126,2.324,0.175,3.466,0.175c17.528,0,32.547-13.298,34.331-31.119l0.255-2.563c0.316,12.583,7.362,23.382,17.677,29.157
		c4.982,2.794,10.654,4.524,16.764,4.524c6.132,0,11.798-1.73,16.78-4.524c10.307-5.775,17.36-16.574,17.686-29.157l0.245,2.563
		c1.786,17.82,16.797,31.119,34.331,31.119c1.15,0,2.301-0.049,3.468-0.175c4.863-0.493,9.371-1.976,13.392-4.222
		c9.974-5.577,16.695-15.9,17.542-27.618l0.842,4.212c3.276,16.447,17.7,27.809,33.839,27.809c2.237,0,4.498-0.221,6.784-0.682
		c3.664-0.73,6.997-2.158,10.092-3.887c9.655-5.436,16.098-15.146,17.328-26.167l1.816,6.07
		c4.476,14.987,18.209,24.666,33.085,24.666c3.27,0,6.594-0.468,9.886-1.451c18.289-5.46,28.682-24.707,23.224-42.979
		l-29.539-98.851C448.453,14.155,429.45,0,407.894,0H79.778C58.212,0,39.21,14.155,33.038,34.815L3.506,133.666
		C-1.952,151.939,8.443,171.186,26.723,176.645z"/>
</g>
<g>
</g>
<g>
</g>
<g>
</g>
<g>
</g>
<g>
</g>
<g>
</g>
<g>
</g>
<g>
</g>
<g>
</g>
<g>
</g>
<g>
</g>
<g>
</g>
<g>
</g>
<g>
</g>
<g>
</g>
</svg>
